<?xml version="1.0" encoding="utf-8"?>
<!-- Generator: Adobe Illustrator 22.1.0, SVG Export Plug-In . SVG Version: 6.00 Build 0)  -->
<svg version="1.1" id="dog" xmlns="http://www.w3.org/2000/svg" xmlns:xlink="http://www.w3.org/1999/xlink" x="0px" y="0px"
	 viewBox="0 0 423 715" style="enable-background:new 0 0 423 715;" xml:space="preserve">
<g>
	<g>
		<path class="st0" d="M406.2,360.5c-5-0.2-15.7,1.7-18.6-1.4c-3.4-3.5-7.7-5.4-11.4-8.4c-3.3-2.7-5.4-5.1-10-5.4
			c-5-0.3-10-0.6-15-0.9c1.3,0.1,5.8-27.5,6.2-30.3c1.5-11,2.2-18.5-3.9-27.9c-3.5-5.4-7.1-10.7-10.7-16
			c-7.7-11-16.8-20.5-32.7-17.3c-2.3,0.5-6.7-2-7.8-4.3c-7.9-15.7-10.8-32.3-6.2-49.6c2.2-8.3,7.1-13.6,16-16.5
			c9.7-3.2,18.5-9.4,27.9-13.8c3.8-1.7,8.6-3.3,12.4-2.6c17.5,3.4,26,0.2,34.6-15.2c13.9-24.9,12.5-50.7,1.5-75.7
			c-8.7-19.6-29-28.8-50.1-25.1c-2.6,0.4-5.2,0.5-7.8,0.7c0.8-0.9,1.7-1.8,2.5-2.7c-9.9-12.5-18.9-25.9-30.1-37
			c-4.6-4.5-14.4-6.4-21.2-5.4c-17.3,2.7-32,28.1-28.3,45.4c5.2-9.7,9.5-20.6,16.4-29.5c9.1-11.9,19.5-12.3,31.2-3.1
			c11.7,9.2,18.8,21.2,22,35.4C302.3,70,299,74.3,299.8,86c4.5-5.2,8.1-9.5,11.9-13.6c22.3-23.8,55.9-21.7,69.2,5.5
			c11.6,23.6,13.9,48.2-2.1,71.7c-6.6,9.7-13.6,12.1-25.9,7.8c1.9-8.4,13.9-14.9,5.4-25.8c-28.9,47.7-77.2,61.5-102.5,31.3
			c3.5-9.5,6.6-18.1,10.3-28.2c-5.4,0-7.6-0.2-9.8,0.1c-1,0.1-1.9,1-2.8,1.5c4.9,7,2.5,13-5.2,14.8c-3.3,0.8-7.1,1.8-9.5,4
			c-11.4,10.5-28,9.2-37.6-3.3c-1.7-2.2-3.6-4.1-5.4-6.2l-3.4,2.2c2.4,4.2,4.1,9.1,7.3,12.5c3.5,3.8,8.4,6.3,14.5,10.7
			c-6.4,4.1-11.5,10-17,10.3c-8,0.6-16.3-2.8-24.5-4.5c0.9,7.5-4.2,8.2-11.6,5.8c-11.2-3.6-18.3-10.9-21.3-22.5
			c-4.6-18.1,2.8-31.4,16.1-43.1c10.2,3.7,17,18.3,31.1,8.9c-17.3-1.9-20.3-5.9-16.3-23.3c3.8-16.6,10.9-31.5,25.4-41.7
			c15.2-10.8,31.6-15.8,50.4-8c-0.6-10.8-7.8-10.8-14.2-11.2c-32.4-2.4-62.1,24.1-66.3,59c-0.5,4.4-1.2,8.7-1.5,10.5
			c-7.3,1.5-13.3,1-17,3.7c-19.5,14.1-19.2,55,0.3,69.1c3.9,2.8,9.1,5.5,13.7,5.6c12.5,0.2,25.2-0.1,37.5-1.9
			c8.5-1.2,13.9,0.8,15.9,8.9c3.2,12.4,5.7,24.9,8.6,37.3c2.3,10.1,0,16.8-11.2,20.2c-6.4,1.9-12.8,6.2-17.4,11.2
			c-12,12.7-25,24.3-37.8,36.1c-24.2,22.1-36.6,51.7-37.2,85c-0.1,7.2,3.7,14.4,5.7,21.7c7.1-2.4,15.2-3.3,21.2-7.3
			c17.1-11.5,30.9-25.9,33.7-48.8c3.4,4.6,5.9,9.1,6.1,13.7c0.3,7.3,0,14.9-1.5,22c-6.1,27.9-12,55.9-19.7,83.3
			c-2.5,8.8-8.5,18.8-16,23.5c-24.7,15.5-42.3,37.3-59.4,60c-2,2.6-4.8,4.6-7.3,6.8c-2.4-2.8-5.7-5.1-7.1-8.4
			c-11.9-26.4-2.5-56.5,22.1-72.1c3.1-2,5.8-4.5,8.7-6.8c-14.6,0.9-24.6,9-34.1,18.5c-17.4,17.5-21.7,39.3-20.1,62.7
			C19.6,554.8,6.3,572.6,18,603c6.2,16.1,17.2,30.5,26.5,46.3c-1.3,0.6-6,1.5-8.8,4.3c-4.3,4.3-7.2,10-10.7,15.1
			c5.6,2.4,11.1,6.4,16.9,7c24.6,2.5,48.4-11.9,73.5-3.9c2.6,0.8,6-1,9.1-1.4c5.9-0.9,11.8-1.7,21.1-3c-19.6,11.4-36.3,21-52.9,30.6
			c0.3,2,0.6,4.1,0.9,6.1c10.9,2.3,22.4,8,32.6,6.2c12.2-2.2,23.9-9.9,34.5-17.1c3.8-2.6,4.8-10.5,5.7-16.1
			c1.4-9,5.6-13.8,14.8-16.7c10.1-3.2,19.1-9.7,28.9-14.2c3.2-1.5,7.8-2.3,11-1.3c10.9,3.6,13.6,13.8,17,23.4
			c4.3,11.9,9.3,24.3,23.5,26.3c11.4,1.6,23.3,1,34.8-0.1c6.4-0.6,14.4-2.1,14.3-12c-0.1-10.3-8.3-10.8-14.8-10.6
			c-14.8,0.4-24.6-7.4-31.3-18.6c-7.3-12.1-12.3-25.6-18.2-38.6c-1.3-2.8-1.2-7.7-3-8.4c-7.1-2.7-9.5-7-7.8-14.2
			c1.4-5.9,2.4-11.9,3.6-17.9c0.8,0.1,1.6,0.2,2.4,0.3l2.2,27.2c1.1,0.1,2.3,0.1,3.4,0.2c1.4-4.6,4.4-9.4,4.1-13.9
			c-1.3-16.9-2-34.1-6.1-50.4c-9-35.2-16.2-70-6.2-106.4c2.4-8.8,5.7-12,14.8-11.3c33.6,2.6,66.6-1.9,98.9-10.9
			c9.2-2.6,18.1-6.9,26.2-11.9c6.3-3.9,11.9-11.8,14.3-19c2,1.2,4.4,1.9,6.9,1.9c4.5,0,8.9-2.3,11.5-6c3.8-5.5,3.8-12.2-3.9-13.5
			C407.1,360.5,406.7,360.5,406.2,360.5z M84.8,602.7c-7.3-11.4-5.1-15.7,10.7-21.3C91.7,588.9,88.3,595.6,84.8,602.7z M270.2,675
			c8.2,2.9,16,5.7,24.9,8.9c-11.7,5.8-23.8,5.6-35.2,1.8c-4.7-1.6-7.6-8.6-10-14.5C257.3,674,261.9,685.6,270.2,675z M234.7,639.7
			c-11.6-6.7-23-18.8-33.8,0.9c-4.3-19.6,21.7-11.1,18.5-25.3c5.3,0.6,9.6,1.2,15.2,1.8V639.7z M197.4,372.2
			c7.2,0.7,12.6,1.2,17.9,1.7C208.9,381.7,203.3,382.3,197.4,372.2z M223.1,440.9c0.8-7.5,1.7-15,2.5-22.5c1.6,0.3,3.2,0.6,4.8,0.8
			c-1.6,7.4-3.1,14.8-4.7,22.1C224.8,441.2,224,441,223.1,440.9z M240.7,555.3c-11.9,2.3-15.8-9.8-9.4-32.6
			C234.4,533.5,237.6,544.3,240.7,555.3z M228.9,364.2c-31.1-0.2-49.4-18.9-49.6-50.5c-0.1-27.3,29.2-56.4,57.4-56.9
			c24.2-0.5,47.2,22.1,47.1,46.2C283.7,334.8,257.1,364.4,228.9,364.2z M232.3,248c-5.4-22.6-10.6-43.8-15.4-65.1
			c-1.6-7.3,0.2-13.1,9.3-13.8c4.6-0.4,9.2-2.3,13.7-2.1c4.8,0.2,9.6,1.7,14.1,3.6c12.2,5.1,24.3,10.8,36.8,16.4
			c-6.1,20.8-3.9,41.9,4.3,63.2c1.5,4-6.5,11.7-10.6,18.7C265.9,255.9,250.6,244.2,232.3,248z M347.6,309.8
			c-0.2,3.1-0.3,6.2-0.7,9.2c-3.2,20.7-8.7,24.5-28.7,19.9c-2.6-0.6-5.2-1.3-7.9-2c-21.3-5.5-20.8-5.5-18.4-26.8
			c1-8.6,0.6-18-2.1-26.2c-3.3-10.2,1.9-13.9,9.1-16.5c21.3-7.8,35.7-1.4,44.2,19.9c2.8,7,3.8,14.8,5.5,22.2
			C348.3,309.6,348,309.7,347.6,309.8z"/>
	</g>
	<circle class="st0" cx="218.2" cy="327.1" r="9.7"/>
	<circle class="st0" cx="311.8" cy="321.3" r="9.3"/>
</g>
</svg>
